<?xml version="1.0" encoding="UTF-8"?>
<svg xmlns="http://www.w3.org/2000/svg" xmlns:xlink="http://www.w3.org/1999/xlink" width="375pt" height="374.999991pt" viewBox="0 0 375 374.999991" version="1.2">
<defs>
<clipPath id="clip1">
  <path d="M 5.277344 0 L 369.917969 0 L 369.917969 375 L 5.277344 375 Z M 5.277344 0 "/>
</clipPath>
</defs>
<g id="surface1">
<path style=" stroke:none;fill-rule:nonzero;fill:rgb(17.248535%,25.489807%,30.979919%);fill-opacity:1;" d="M 187.597656 174.898438 C 197.460938 174.898438 205.480469 182.914062 205.480469 192.765625 C 205.480469 202.625 197.460938 210.640625 187.597656 210.640625 C 177.742188 210.640625 169.71875 202.625 169.71875 192.765625 C 169.71875 182.914062 177.742188 174.898438 187.597656 174.898438 "/>
<path style=" stroke:none;fill-rule:nonzero;fill:rgb(92.158508%,92.939758%,93.728638%);fill-opacity:1;" d="M 327.648438 290.527344 C 327.414062 293.542969 327.839844 296.128906 328.933594 297.972656 C 296.761719 341.035156 245.382812 368.976562 187.597656 368.976562 C 129.8125 368.976562 78.433594 341.035156 46.261719 297.972656 C 47.359375 296.136719 47.789062 293.542969 47.550781 290.519531 C 77.5 265.148438 125.214844 236.726562 164.585938 220.363281 C 164.492188 220.28125 164.414062 220.199219 164.320312 220.117188 C 170.601562 225.46875 178.722656 228.714844 187.597656 228.714844 C 196.351562 228.714844 204.367188 225.570312 210.613281 220.363281 C 249.984375 236.726562 297.699219 265.148438 327.648438 290.527344 "/>
<path style=" stroke:none;fill-rule:nonzero;fill:rgb(92.158508%,92.939758%,93.728638%);fill-opacity:1;" d="M 363.894531 192.765625 C 363.894531 217.535156 358.734375 241.109375 349.46875 262.511719 C 347.316406 262.464844 344.839844 263.386719 342.324219 265.117188 C 305.359375 251.878906 256.871094 224.785156 223 198.890625 C 223.339844 196.898438 223.558594 194.855469 223.558594 192.765625 C 223.558594 177.3125 213.726562 164.140625 200 159.074219 C 194.5 116.8125 195.257812 61.292969 202.265625 22.671875 C 205.027344 21.355469 207.0625 19.679688 208.109375 17.800781 C 295.683594 27.988281 363.894531 102.546875 363.894531 192.765625 "/>
<path style=" stroke:none;fill-rule:nonzero;fill:rgb(92.158508%,92.939758%,93.728638%);fill-opacity:1;" d="M 172.925781 22.671875 C 179.933594 61.285156 180.695312 116.8125 175.195312 159.074219 C 161.46875 164.140625 151.636719 177.316406 151.636719 192.765625 C 151.636719 194.863281 151.851562 196.890625 152.199219 198.890625 C 118.328125 224.78125 69.84375 251.878906 32.875 265.117188 C 30.359375 263.386719 27.890625 262.464844 25.730469 262.511719 C 16.464844 241.109375 11.304688 217.535156 11.304688 192.765625 C 11.304688 102.546875 79.515625 27.988281 167.09375 17.800781 C 168.136719 19.679688 170.167969 21.355469 172.925781 22.671875 "/>
<g clip-path="url(#clip1)" clip-rule="nonzero">
<path style=" stroke:none;fill-rule:nonzero;fill:rgb(19.999695%,59.609985%,85.879517%);fill-opacity:1;" d="M 205.480469 192.765625 C 205.480469 182.914062 197.460938 174.898438 187.597656 174.898438 C 177.742188 174.898438 169.71875 182.914062 169.71875 192.765625 C 169.71875 202.625 177.742188 210.640625 187.597656 210.640625 C 197.460938 210.640625 205.480469 202.625 205.480469 192.765625 Z M 328.933594 297.972656 C 327.839844 296.128906 327.414062 293.542969 327.648438 290.527344 C 297.699219 265.148438 249.984375 236.726562 210.613281 220.363281 C 204.367188 225.570312 196.351562 228.714844 187.597656 228.714844 C 178.722656 228.714844 170.601562 225.46875 164.320312 220.117188 C 164.414062 220.199219 164.492188 220.28125 164.585938 220.363281 C 125.214844 236.726562 77.5 265.148438 47.550781 290.519531 C 47.789062 293.542969 47.359375 296.136719 46.261719 297.972656 C 78.433594 341.035156 129.8125 368.976562 187.597656 368.976562 C 245.382812 368.976562 296.761719 341.035156 328.933594 297.972656 Z M 369.921875 192.765625 C 369.921875 218.730469 364.425781 243.417969 354.59375 265.792969 C 355.722656 268.003906 355.992188 271.148438 355.40625 274.757812 C 357.203125 278.796875 357.730469 283.789062 354.628906 289.160156 C 351.53125 294.527344 346.941406 296.5625 342.542969 297.03125 C 339.683594 299.355469 336.804688 300.691406 334.304688 300.808594 C 301.074219 345.773438 247.691406 375 187.597656 375 C 127.5 375 74.125 345.773438 40.886719 300.808594 C 38.386719 300.691406 35.507812 299.355469 32.648438 297.03125 C 28.257812 296.5625 23.667969 294.527344 20.570312 289.160156 C 17.464844 283.789062 17.996094 278.796875 19.789062 274.757812 C 19.207031 271.140625 19.480469 268.003906 20.605469 265.789062 C 10.773438 243.417969 5.277344 218.730469 5.277344 192.765625 C 5.277344 99.121094 76.335938 21.773438 167.386719 11.691406 C 168.746094 9.617188 171.328125 7.824219 174.734375 6.527344 C 177.335938 2.953125 181.394531 0 187.597656 0 C 193.804688 0 197.855469 2.953125 200.464844 6.527344 C 203.871094 7.824219 206.453125 9.617188 207.8125 11.691406 C 298.863281 21.773438 369.921875 99.121094 369.921875 192.765625 Z M 152.199219 198.890625 C 151.851562 196.890625 151.636719 194.863281 151.636719 192.765625 C 151.636719 177.316406 161.46875 164.140625 175.195312 159.074219 C 180.695312 116.8125 179.933594 61.285156 172.925781 22.671875 C 170.167969 21.355469 168.136719 19.679688 167.09375 17.800781 C 79.515625 27.988281 11.304688 102.546875 11.304688 192.765625 C 11.304688 217.535156 16.464844 241.109375 25.730469 262.511719 C 27.890625 262.464844 30.359375 263.386719 32.875 265.117188 C 69.84375 251.878906 118.328125 224.78125 152.199219 198.890625 Z M 200 159.074219 C 213.726562 164.140625 223.558594 177.3125 223.558594 192.765625 C 223.558594 194.855469 223.339844 196.898438 223 198.890625 C 256.871094 224.785156 305.359375 251.878906 342.324219 265.117188 C 344.839844 263.386719 347.316406 262.464844 349.46875 262.511719 C 358.734375 241.109375 363.894531 217.535156 363.894531 192.765625 C 363.894531 102.546875 295.683594 27.988281 208.109375 17.800781 C 207.0625 19.679688 205.027344 21.355469 202.265625 22.671875 C 195.257812 61.292969 194.5 116.8125 200 159.074219 "/>
</g>
<path style=" stroke:none;fill-rule:nonzero;fill:rgb(68.238831%,85.099792%,84.309387%);fill-opacity:1;" d="M 246.023438 57.152344 C 243.859375 56.542969 241.691406 55.929688 239.566406 55.324219 C 237.441406 54.679688 235.214844 54.316406 233.160156 53.863281 C 231.078125 53.457031 229.1875 53.015625 227.203125 52.769531 C 225.304688 52.511719 223.507812 52.277344 221.851562 52.054688 C 218.609375 51.625 215.996094 51.691406 214.132812 51.542969 C 212.273438 51.453125 211.214844 51.398438 211.214844 51.398438 C 211.214844 51.398438 211.902344 52.214844 213.101562 53.632812 C 214.242188 55.070312 216.148438 57.019531 217.9375 59.566406 C 218.8125 60.804688 219.753906 62.148438 220.753906 63.570312 C 221.730469 64.90625 222.679688 66.570312 223.65625 68.148438 C 224.59375 69.753906 225.617188 71.273438 226.46875 73.019531 C 230.902344 65.503906 237.902344 59.921875 246.023438 57.152344 "/>
<path style=" stroke:none;fill-rule:nonzero;fill:rgb(92.158508%,92.939758%,93.728638%);fill-opacity:1;" d="M 274.996094 78.792969 C 281.929688 88.386719 279.773438 101.773438 270.175781 108.707031 C 260.578125 115.628906 247.1875 113.464844 240.253906 103.882812 C 233.328125 94.296875 235.480469 80.898438 245.074219 73.976562 C 254.675781 67.046875 268.066406 69.207031 274.996094 78.792969 "/>
<path style=" stroke:none;fill-rule:nonzero;fill:rgb(87.838745%,35.688782%,28.62854%);fill-opacity:1;" d="M 270.175781 108.707031 C 279.773438 101.773438 281.929688 88.386719 274.996094 78.792969 C 268.066406 69.207031 254.675781 67.046875 245.074219 73.976562 C 235.480469 80.898438 233.328125 94.296875 240.253906 103.882812 C 247.1875 113.464844 260.578125 115.628906 270.175781 108.707031 Z M 282.050781 73.699219 C 291.800781 87.183594 288.761719 106.011719 275.269531 115.753906 C 261.773438 125.496094 242.945312 122.460938 233.195312 108.972656 C 223.453125 95.496094 226.484375 76.664062 239.976562 66.921875 C 253.46875 57.183594 272.308594 60.210938 282.050781 73.699219 "/>
<path style=" stroke:none;fill-rule:nonzero;fill:rgb(74.119568%,24.308777%,14.509583%);fill-opacity:1;" d="M 244.347656 100.921875 C 239.046875 93.597656 240.695312 83.359375 248.027344 78.066406 C 255.363281 72.765625 265.605469 74.417969 270.902344 81.746094 C 276.203125 89.078125 274.554688 99.320312 267.222656 104.613281 C 259.882812 109.910156 249.644531 108.257812 244.347656 100.921875 Z M 272.855469 80.339844 C 266.78125 71.929688 255.03125 70.039062 246.621094 76.117188 C 238.210938 82.1875 236.316406 93.929688 242.390625 102.335938 C 248.472656 110.746094 260.21875 112.632812 268.625 106.5625 C 277.039062 100.484375 278.933594 88.746094 272.855469 80.339844 "/>
<path style=" stroke:none;fill-rule:nonzero;fill:rgb(17.248535%,25.489807%,30.979919%);fill-opacity:1;" d="M 265.742188 94.296875 C 265.984375 93.703125 265.96875 93.242188 265.703125 92.90625 C 265.4375 92.570312 264.984375 92.320312 264.355469 92.160156 C 264.054688 92.074219 263.691406 92.015625 263.269531 91.988281 C 262.84375 91.957031 262.449219 91.886719 262.078125 91.769531 C 261.710938 91.660156 261.414062 91.476562 261.191406 91.226562 C 260.96875 90.972656 260.894531 90.589844 260.984375 90.070312 C 261.054688 89.628906 261.246094 89.320312 261.566406 89.128906 C 261.890625 88.941406 262.246094 88.835938 262.652344 88.804688 C 263.058594 88.777344 263.472656 88.796875 263.894531 88.867188 C 264.3125 88.949219 264.664062 89.019531 264.941406 89.078125 C 265.597656 89.21875 266.21875 89.457031 266.800781 89.792969 C 267.382812 90.136719 267.875 90.554688 268.273438 91.050781 C 268.671875 91.542969 268.9375 92.101562 269.066406 92.726562 C 269.195312 93.351562 269.128906 94.023438 268.867188 94.75 C 268.621094 95.4375 268.289062 96.039062 267.863281 96.550781 C 267.441406 97.0625 266.941406 97.472656 266.375 97.777344 C 265.816406 98.085938 265.195312 98.289062 264.535156 98.386719 C 263.867188 98.488281 263.179688 98.460938 262.460938 98.300781 C 262.023438 98.210938 261.566406 98.082031 261.089844 97.921875 C 260.613281 97.761719 260.136719 97.632812 259.644531 97.523438 C 259.148438 97.425781 258.667969 97.386719 258.195312 97.394531 C 257.722656 97.414062 257.265625 97.550781 256.816406 97.820312 C 256.9375 97.957031 257.105469 98.164062 257.320312 98.449219 C 257.527344 98.738281 257.765625 99.042969 258.035156 99.367188 C 258.304688 99.691406 258.605469 100.011719 258.929688 100.324219 C 259.257812 100.640625 259.585938 100.894531 259.910156 101.089844 C 259.824219 101.082031 259.757812 101.070312 259.722656 101.0625 C 260.070312 101.078125 260.394531 101.097656 260.699219 101.128906 C 261 101.15625 261.273438 101.328125 261.507812 101.644531 C 261.6875 101.867188 261.785156 102.117188 261.804688 102.394531 C 261.824219 102.675781 261.78125 102.941406 261.675781 103.195312 C 261.570312 103.445312 261.402344 103.664062 261.179688 103.847656 C 260.960938 104.035156 260.699219 104.128906 260.394531 104.140625 C 259.800781 104.167969 259.230469 104.113281 258.691406 103.980469 C 258.148438 103.847656 257.664062 103.542969 257.25 103.074219 L 253.320312 98.699219 C 253.066406 98.417969 252.9375 98.089844 252.9375 97.714844 C 252.933594 97.34375 253.039062 97.007812 253.253906 96.703125 C 253.417969 96.464844 253.625 96.277344 253.871094 96.128906 C 254.117188 95.988281 254.355469 95.832031 254.589844 95.671875 C 255.152344 95.296875 255.707031 95 256.246094 94.78125 C 256.78125 94.566406 257.324219 94.429688 257.863281 94.363281 C 258.398438 94.296875 258.957031 94.304688 259.523438 94.382812 C 260.09375 94.460938 260.695312 94.597656 261.335938 94.796875 C 261.625 94.886719 261.984375 94.996094 262.421875 95.113281 C 262.863281 95.230469 263.300781 95.300781 263.742188 95.328125 C 264.183594 95.347656 264.59375 95.292969 264.960938 95.148438 C 265.328125 95.003906 265.589844 94.71875 265.742188 94.296875 "/>
<path style=" stroke:none;fill-rule:nonzero;fill:rgb(17.248535%,25.489807%,30.979919%);fill-opacity:1;" d="M 249.980469 86.859375 C 249.90625 86.875 249.800781 86.882812 249.660156 86.875 C 249.636719 86.917969 249.597656 86.988281 249.546875 87.078125 C 249.496094 87.167969 249.449219 87.253906 249.40625 87.335938 C 249.367188 87.414062 249.339844 87.464844 249.320312 87.496094 C 249.300781 87.519531 249.308594 87.488281 249.335938 87.394531 C 249.242188 87.617188 249.183594 87.867188 249.164062 88.152344 C 249.140625 88.433594 249.144531 88.6875 249.167969 88.910156 C 249.179688 89.070312 249.210938 89.246094 249.253906 89.414062 C 249.292969 89.585938 249.367188 89.753906 249.464844 89.90625 C 249.644531 90.1875 249.863281 90.4375 250.101562 90.65625 C 250.347656 90.882812 250.648438 91.03125 251.011719 91.113281 C 251.269531 91.183594 251.550781 91.167969 251.847656 91.066406 C 252.148438 90.96875 252.417969 90.816406 252.671875 90.613281 C 252.921875 90.414062 253.128906 90.171875 253.285156 89.894531 C 253.449219 89.621094 253.523438 89.347656 253.5 89.074219 C 253.476562 88.785156 253.398438 88.523438 253.25 88.285156 C 253.109375 88.046875 252.929688 87.839844 252.714844 87.652344 C 252.382812 87.351562 252.023438 87.152344 251.648438 87.050781 C 251.382812 86.957031 251.109375 86.902344 250.824219 86.875 C 250.539062 86.855469 250.257812 86.84375 249.980469 86.859375 Z M 258.699219 84.179688 C 257.820312 84.082031 256.953125 84.082031 256.109375 84.160156 C 255.265625 84.246094 254.414062 84.382812 253.546875 84.582031 C 253.867188 84.742188 254.167969 84.925781 254.445312 85.140625 C 254.726562 85.351562 254.988281 85.605469 255.230469 85.902344 C 255.554688 86.316406 255.820312 86.71875 256.023438 87.117188 C 256.21875 87.507812 256.386719 87.96875 256.523438 88.488281 C 256.683594 89.183594 256.648438 89.851562 256.417969 90.492188 C 256.183594 91.136719 255.828125 91.710938 255.355469 92.21875 C 254.886719 92.734375 254.339844 93.15625 253.71875 93.496094 C 253.085938 93.835938 252.472656 94.0625 251.855469 94.167969 C 251.03125 94.308594 250.242188 94.199219 249.492188 93.832031 C 248.75 93.457031 248.101562 92.992188 247.558594 92.410156 C 246.984375 91.824219 246.566406 91.121094 246.304688 90.3125 C 245.996094 89.398438 245.957031 88.445312 246.199219 87.457031 C 246.441406 86.421875 246.882812 85.527344 247.53125 84.78125 C 248.183594 84.035156 248.933594 83.410156 249.789062 82.910156 C 250.640625 82.410156 251.570312 82.015625 252.574219 81.742188 C 253.574219 81.460938 254.5625 81.273438 255.535156 81.171875 C 256.097656 81.109375 256.699219 81.066406 257.324219 81.042969 C 257.960938 81.015625 258.5625 81.074219 259.121094 81.210938 C 259.597656 81.316406 259.933594 81.53125 260.128906 81.863281 C 260.328125 82.203125 260.398438 82.542969 260.355469 82.898438 C 260.304688 83.25 260.136719 83.5625 259.859375 83.824219 C 259.574219 84.089844 259.191406 84.207031 258.699219 84.179688 "/>
<path style=" stroke:none;fill-rule:nonzero;fill:rgb(68.238831%,85.099792%,84.309387%);fill-opacity:1;" d="M 286.027344 311.527344 C 284.320312 312.289062 282.503906 313.097656 280.585938 313.957031 C 278.664062 314.773438 276.578125 315.515625 274.460938 316.34375 C 272.351562 317.210938 270.054688 317.878906 267.738281 318.628906 C 265.425781 319.425781 262.988281 320.089844 260.476562 320.710938 C 259.234375 321.03125 257.972656 321.363281 256.695312 321.695312 C 255.402344 321.957031 254.09375 322.222656 252.765625 322.488281 C 251.453125 322.753906 250.125 323.019531 248.785156 323.289062 C 247.433594 323.484375 246.066406 323.683594 244.683594 323.875 C 243.320312 324.070312 241.941406 324.257812 240.554688 324.457031 C 239.160156 324.578125 237.75 324.695312 236.335938 324.820312 C 233.53125 325.128906 230.667969 325.203125 227.804688 325.265625 C 222.09375 325.4375 216.3125 325.140625 210.632812 324.589844 C 207.796875 324.371094 204.972656 323.816406 202.191406 323.464844 C 199.410156 323.019531 196.667969 322.363281 193.96875 321.847656 C 191.277344 321.199219 188.644531 320.441406 186.050781 319.769531 C 183.507812 318.941406 180.992188 318.113281 178.519531 317.3125 L 178.285156 317.234375 L 178.175781 317.199219 L 178.117188 317.171875 C 178.515625 317.265625 177.140625 316.957031 178.992188 317.363281 L 178.484375 317.160156 L 177.46875 316.75 L 175.453125 315.949219 C 174.46875 315.550781 173.496094 315.15625 172.523438 314.769531 C 167.070312 316.421875 161.15625 316.816406 155.191406 315.652344 C 150.59375 331.605469 135.644531 342.277344 119.269531 341.730469 C 120.074219 342.039062 120.894531 342.351562 121.769531 342.625 C 125.972656 344.085938 130.617188 345.738281 135.773438 347.402344 C 141.351562 348.8125 147.359375 350.234375 153.605469 351.617188 C 156.367188 351.996094 159.050781 352.242188 161.878906 352.570312 C 163.28125 352.722656 164.703125 352.878906 166.132812 353.039062 L 168.292969 353.277344 L 169.378906 353.398438 L 169.925781 353.457031 C 171.816406 353.875 170.492188 353.574219 170.9375 353.667969 L 171.011719 353.671875 L 171.167969 353.679688 L 171.476562 353.695312 C 174.761719 353.84375 178.074219 354.027344 181.417969 354.101562 C 184.78125 354.050781 188.160156 354.058594 191.550781 353.917969 C 194.953125 353.65625 198.355469 353.5 201.746094 353.109375 C 205.144531 352.625 208.53125 352.320312 211.878906 351.667969 C 218.589844 350.476562 225.1875 348.972656 231.496094 347.011719 C 234.652344 346.046875 237.757812 345.078125 240.753906 343.894531 C 242.25 343.328125 243.738281 342.765625 245.21875 342.214844 C 246.664062 341.582031 248.101562 340.957031 249.527344 340.339844 C 250.9375 339.714844 252.332031 339.097656 253.722656 338.476562 C 255.078125 337.796875 256.410156 337.117188 257.734375 336.449219 C 259.046875 335.777344 260.347656 335.109375 261.632812 334.457031 C 262.875 333.738281 264.109375 333.023438 265.328125 332.316406 C 267.757812 330.941406 270.078125 329.546875 272.246094 328.0625 C 274.421875 326.613281 276.554688 325.292969 278.46875 323.808594 C 280.402344 322.359375 282.277344 321.03125 283.992188 319.675781 C 285.667969 318.28125 287.257812 316.960938 288.753906 315.722656 C 291.722656 313.230469 294.132812 310.820312 296.167969 308.984375 C 299.972656 305.046875 302.152344 302.800781 302.152344 302.800781 C 302.152344 302.800781 299.453125 304.382812 294.726562 307.152344 C 292.28125 308.371094 289.445312 309.964844 286.027344 311.527344 "/>
<path style=" stroke:none;fill-rule:nonzero;fill:rgb(92.158508%,92.939758%,93.728638%);fill-opacity:1;" d="M 137.75 293.09375 C 144.683594 302.6875 142.523438 316.070312 132.929688 323.007812 C 123.332031 329.929688 109.9375 327.765625 103.007812 318.183594 C 96.082031 308.59375 98.234375 295.199219 107.824219 288.277344 C 117.425781 281.347656 130.816406 283.503906 137.75 293.09375 "/>
<path style=" stroke:none;fill-rule:nonzero;fill:rgb(25.099182%,74.119568%,74.119568%);fill-opacity:1;" d="M 132.929688 323.007812 C 142.523438 316.070312 144.683594 302.6875 137.75 293.09375 C 130.816406 283.503906 117.425781 281.347656 107.824219 288.277344 C 98.234375 295.199219 96.082031 308.59375 103.007812 318.183594 C 109.9375 327.765625 123.332031 329.929688 132.929688 323.007812 Z M 144.804688 288 C 154.554688 301.480469 151.515625 320.3125 138.019531 330.050781 C 124.527344 339.792969 105.695312 336.761719 95.949219 323.273438 C 86.203125 309.792969 89.234375 290.964844 102.730469 281.21875 C 116.21875 271.480469 135.0625 274.507812 144.804688 288 "/>
<path style=" stroke:none;fill-rule:nonzero;fill:rgb(13.328552%,61.178589%,59.21936%);fill-opacity:1;" d="M 107.101562 315.222656 C 101.796875 307.898438 103.445312 297.660156 110.78125 292.363281 C 118.113281 287.0625 128.359375 288.71875 133.65625 296.042969 C 138.953125 303.378906 137.308594 313.617188 129.972656 318.914062 C 122.636719 324.207031 112.394531 322.558594 107.101562 315.222656 Z M 135.609375 294.640625 C 129.53125 286.230469 117.785156 284.339844 109.375 290.414062 C 100.964844 296.484375 99.066406 308.226562 105.144531 316.636719 C 111.222656 325.042969 122.972656 326.933594 131.378906 320.863281 C 139.792969 314.785156 141.683594 303.042969 135.609375 294.640625 "/>
<path style=" stroke:none;fill-rule:nonzero;fill:rgb(17.248535%,25.489807%,30.979919%);fill-opacity:1;" d="M 116.917969 303.875 C 117.472656 303.519531 117.921875 303.070312 118.261719 302.527344 C 118.601562 301.984375 118.8125 301.414062 118.886719 300.8125 C 118.964844 300.207031 118.898438 299.613281 118.691406 299.019531 C 118.480469 298.425781 118.09375 297.90625 117.53125 297.460938 C 116.839844 296.90625 116.042969 296.546875 115.152344 296.382812 C 114.257812 296.214844 113.375 296.15625 112.511719 296.21875 C 112.15625 296.253906 111.820312 296.316406 111.511719 296.417969 C 111.195312 296.511719 110.902344 296.667969 110.625 296.875 C 110.277344 297.128906 110.097656 297.449219 110.085938 297.847656 C 110.074219 298.246094 110.179688 298.605469 110.402344 298.914062 C 110.625 299.230469 110.933594 299.433594 111.332031 299.539062 C 111.734375 299.640625 112.15625 299.539062 112.621094 299.230469 C 112.8125 299.179688 113.0625 299.152344 113.367188 299.148438 C 113.664062 299.140625 113.984375 299.164062 114.316406 299.222656 C 114.644531 299.277344 114.957031 299.363281 115.242188 299.476562 C 115.527344 299.59375 115.734375 299.742188 115.867188 299.914062 C 115.921875 300.085938 115.929688 300.269531 115.90625 300.433594 C 115.878906 300.605469 115.839844 300.78125 115.789062 300.953125 C 115.597656 301.164062 115.375 301.320312 115.121094 301.425781 C 114.863281 301.523438 114.601562 301.589844 114.328125 301.628906 C 114.054688 301.667969 113.773438 301.675781 113.484375 301.664062 C 113.195312 301.648438 112.921875 301.636719 112.671875 301.640625 C 112.355469 301.632812 112.070312 301.695312 111.816406 301.847656 C 111.5625 302 111.367188 302.191406 111.226562 302.421875 C 111.089844 302.652344 111.019531 302.910156 111.023438 303.195312 C 111.027344 303.476562 111.128906 303.753906 111.328125 304.007812 C 111.554688 304.300781 111.855469 304.507812 112.230469 304.636719 C 112.609375 304.761719 112.988281 304.878906 113.375 304.996094 C 113.765625 305.117188 114.125 305.28125 114.453125 305.5 C 114.789062 305.714844 115.03125 306.070312 115.183594 306.570312 C 115.164062 306.851562 115.113281 307.105469 115.03125 307.335938 C 114.949219 307.578125 114.839844 307.820312 114.683594 308.074219 C 114.609375 308.210938 114.539062 308.316406 114.472656 308.394531 C 114.40625 308.472656 114.316406 308.566406 114.191406 308.679688 C 114.089844 308.757812 113.996094 308.835938 113.894531 308.910156 C 113.796875 308.976562 113.6875 309.046875 113.558594 309.101562 C 113.03125 309.296875 112.621094 309.332031 112.3125 309.195312 C 112.003906 309.0625 111.730469 308.859375 111.484375 308.609375 C 111.246094 308.355469 111.011719 308.078125 110.785156 307.796875 C 110.554688 307.507812 110.25 307.3125 109.867188 307.203125 C 109.527344 307.097656 109.210938 307.097656 108.933594 307.191406 C 108.65625 307.289062 108.4375 307.449219 108.273438 307.679688 C 108.109375 307.902344 108.019531 308.167969 107.992188 308.472656 C 107.96875 308.777344 108.011719 309.082031 108.136719 309.386719 L 108.210938 309.503906 C 108.535156 309.914062 108.886719 310.308594 109.277344 310.679688 C 109.664062 311.046875 110.078125 311.363281 110.519531 311.609375 C 110.960938 311.867188 111.429688 312.050781 111.925781 312.164062 C 112.421875 312.28125 112.949219 312.28125 113.503906 312.175781 C 114.144531 312.046875 114.746094 311.832031 115.296875 311.511719 C 115.855469 311.199219 116.34375 310.820312 116.761719 310.382812 C 117.179688 309.953125 117.515625 309.464844 117.765625 308.917969 C 118.015625 308.371094 118.160156 307.820312 118.191406 307.246094 C 118.230469 306.679688 118.152344 306.105469 117.957031 305.523438 C 117.765625 304.941406 117.414062 304.394531 116.917969 303.875 "/>
<path style=" stroke:none;fill-rule:nonzero;fill:rgb(17.248535%,25.489807%,30.979919%);fill-opacity:1;" d="M 119.929688 309.238281 C 120.023438 309.4375 120.148438 309.601562 120.3125 309.722656 C 120.46875 309.847656 120.644531 309.945312 120.839844 310.027344 C 121.03125 310.105469 121.234375 310.164062 121.445312 310.210938 C 121.652344 310.25 121.851562 310.292969 122.046875 310.328125 C 122.652344 310.464844 123.277344 310.605469 123.917969 310.738281 C 124.5625 310.871094 125.1875 310.996094 125.796875 311.117188 C 125.777344 311.332031 125.726562 311.570312 125.660156 311.839844 C 125.585938 312.113281 125.527344 312.398438 125.476562 312.695312 C 125.425781 312.996094 125.398438 313.285156 125.390625 313.570312 C 125.390625 313.851562 125.425781 314.109375 125.515625 314.339844 C 125.660156 314.707031 125.867188 314.949219 126.136719 315.078125 C 126.402344 315.207031 126.679688 315.238281 126.972656 315.167969 C 127.257812 315.097656 127.527344 314.960938 127.777344 314.742188 C 128.03125 314.523438 128.207031 314.25 128.304688 313.914062 L 128.730469 311.746094 C 129.121094 311.824219 129.46875 311.875 129.78125 311.902344 C 130.089844 311.929688 130.421875 311.839844 130.761719 311.617188 C 131.050781 311.441406 131.238281 311.238281 131.324219 311.003906 C 131.410156 310.773438 131.429688 310.535156 131.375 310.289062 C 131.324219 310.042969 131.214844 309.808594 131.050781 309.589844 C 130.886719 309.363281 130.695312 309.179688 130.46875 309.035156 C 130.292969 308.914062 130.113281 308.851562 129.921875 308.835938 C 129.730469 308.824219 129.53125 308.796875 129.324219 308.757812 C 129.339844 308.660156 129.375 308.515625 129.425781 308.3125 C 129.472656 308.117188 129.519531 307.890625 129.582031 307.628906 C 129.644531 307.375 129.6875 307.113281 129.722656 306.847656 C 129.761719 306.574219 129.769531 306.316406 129.753906 306.058594 C 129.722656 305.691406 129.597656 305.398438 129.359375 305.195312 C 129.125 304.988281 128.855469 304.867188 128.542969 304.820312 C 128.238281 304.773438 127.929688 304.820312 127.628906 304.957031 C 127.328125 305.089844 127.105469 305.3125 126.957031 305.632812 C 126.777344 306.015625 126.65625 306.425781 126.589844 306.851562 C 126.523438 307.28125 126.4375 307.714844 126.335938 308.140625 C 125.964844 308.066406 125.601562 308 125.238281 307.925781 C 124.875 307.855469 124.496094 307.765625 124.101562 307.652344 C 124.527344 307.1875 124.945312 306.714844 125.355469 306.246094 C 125.765625 305.773438 126.179688 305.296875 126.59375 304.8125 C 126.890625 304.472656 127.195312 304.132812 127.496094 303.785156 C 127.796875 303.445312 128.101562 303.097656 128.40625 302.738281 C 128.46875 302.671875 128.582031 302.554688 128.746094 302.394531 C 128.914062 302.234375 129.082031 302.054688 129.257812 301.84375 C 129.429688 301.636719 129.59375 301.425781 129.734375 301.203125 C 129.878906 300.980469 129.960938 300.769531 129.984375 300.574219 C 130.015625 300.242188 129.96875 299.953125 129.828125 299.699219 C 129.695312 299.453125 129.515625 299.25 129.296875 299.109375 C 129.074219 298.960938 128.820312 298.894531 128.539062 298.882812 C 128.253906 298.878906 127.972656 298.960938 127.6875 299.140625 C 127.453125 299.292969 127.222656 299.484375 126.996094 299.71875 C 126.765625 299.949219 126.546875 300.195312 126.335938 300.457031 C 126.125 300.710938 125.917969 300.972656 125.71875 301.230469 C 125.515625 301.488281 125.328125 301.726562 125.15625 301.921875 C 124.589844 302.585938 124.019531 303.230469 123.429688 303.875 C 122.84375 304.519531 122.265625 305.179688 121.699219 305.851562 C 121.546875 306.039062 121.332031 306.257812 121.070312 306.503906 C 120.804688 306.75 120.5625 307.023438 120.347656 307.3125 C 120.128906 307.609375 119.96875 307.914062 119.863281 308.234375 C 119.761719 308.558594 119.78125 308.890625 119.929688 309.238281 "/>
<path style=" stroke:none;fill-rule:nonzero;fill:rgb(68.238831%,85.099792%,84.309387%);fill-opacity:1;" d="M 63.421875 187.609375 L 64.054688 186.066406 C 64.480469 185.03125 64.910156 183.988281 65.339844 182.941406 C 66.195312 180.851562 67.070312 178.730469 67.945312 176.597656 C 70.015625 172.933594 72.039062 169.652344 74.082031 166.308594 C 76.675781 162.988281 78.886719 159.589844 81.542969 156.605469 C 82.902344 155.167969 84.261719 153.738281 85.597656 152.324219 C 86.910156 150.921875 88.148438 149.523438 89.664062 148.382812 C 91.074219 147.195312 92.464844 146.035156 93.824219 144.890625 C 94.488281 144.328125 95.148438 143.773438 95.796875 143.222656 C 95.90625 143.132812 96.03125 143.054688 96.148438 142.972656 C 80.828125 137.179688 71.222656 121.652344 73.011719 105.304688 C 70.984375 107.992188 69.027344 110.984375 66.910156 113.960938 C 66.253906 114.949219 65.53125 115.890625 64.914062 116.9375 C 64.328125 118.003906 63.730469 119.078125 63.128906 120.167969 C 61.953125 122.328125 60.75 124.539062 59.527344 126.789062 C 58.246094 128.96875 57.289062 131.390625 56.304688 133.808594 C 55.332031 136.207031 54.347656 138.628906 53.355469 141.070312 C 51.546875 145.992188 50.347656 151.21875 48.914062 156.203125 C 47.878906 161.546875 46.988281 167.046875 46.351562 172.042969 C 46.226562 176.847656 46.101562 181.574219 45.980469 186.148438 C 46.347656 190.894531 46.527344 195.382812 47.070312 199.582031 C 47.835938 203.792969 48.515625 207.695312 49.246094 211.253906 C 50.28125 214.769531 51.226562 217.984375 52.070312 220.84375 C 52.28125 221.53125 52.484375 222.207031 52.679688 222.851562 C 52.9375 223.46875 53.183594 224.066406 53.425781 224.628906 C 53.902344 225.773438 54.34375 226.820312 54.738281 227.765625 C 56.328125 231.554688 57.238281 233.722656 57.238281 233.722656 C 57.238281 233.722656 57.15625 231.375 57.015625 227.273438 C 56.984375 226.246094 56.945312 225.113281 56.902344 223.878906 C 56.882812 223.253906 56.859375 222.617188 56.839844 221.941406 C 56.886719 221.285156 56.933594 220.605469 56.988281 219.902344 C 57.199219 217.167969 57.441406 214.074219 57.699219 210.710938 C 58.304688 207.410156 58.957031 203.824219 59.648438 200.035156 C 60.539062 196.316406 61.851562 192.492188 62.96875 188.625 L 63.074219 188.257812 L 63.132812 188.074219 L 63.160156 187.988281 C 63.179688 187.863281 63.003906 188.878906 63.089844 188.425781 L 63.105469 188.375 L 63.421875 187.609375 "/>
<path style=" stroke:none;fill-rule:nonzero;fill:rgb(92.158508%,92.939758%,93.728638%);fill-opacity:1;" d="M 126.316406 96.667969 C 133.25 106.261719 131.09375 119.648438 121.5 126.582031 C 111.898438 133.503906 98.507812 131.339844 91.574219 121.761719 C 84.648438 112.171875 86.800781 98.777344 96.394531 91.851562 C 105.996094 84.921875 119.386719 87.078125 126.316406 96.667969 "/>
<path style=" stroke:none;fill-rule:nonzero;fill:rgb(60.778809%,35.289001%,71.369934%);fill-opacity:1;" d="M 121.5 126.582031 C 131.09375 119.648438 133.25 106.261719 126.316406 96.667969 C 119.386719 87.078125 105.996094 84.921875 96.394531 91.851562 C 86.800781 98.777344 84.648438 112.171875 91.574219 121.761719 C 98.507812 131.339844 111.898438 133.503906 121.5 126.582031 Z M 133.371094 91.574219 C 143.121094 105.058594 140.085938 123.886719 126.589844 133.625 C 113.09375 143.371094 94.265625 140.335938 84.515625 126.847656 C 74.773438 113.371094 77.804688 94.539062 91.296875 84.792969 C 104.789062 75.058594 123.628906 78.085938 133.371094 91.574219 "/>
<path style=" stroke:none;fill-rule:nonzero;fill:rgb(51.368713%,28.239441%,58.81958%);fill-opacity:1;" d="M 95.667969 118.796875 C 90.363281 111.46875 92.015625 101.238281 99.351562 95.9375 C 106.683594 90.640625 116.929688 92.292969 122.222656 99.621094 C 127.523438 106.953125 125.875 117.195312 118.542969 122.488281 C 111.207031 127.785156 100.964844 126.132812 95.667969 118.796875 Z M 124.175781 98.214844 C 118.101562 89.804688 106.351562 87.914062 97.941406 93.992188 C 89.53125 100.058594 87.640625 111.804688 93.710938 120.210938 C 99.792969 128.621094 111.539062 130.507812 119.949219 124.4375 C 128.359375 118.359375 130.253906 106.621094 124.175781 98.214844 "/>
<path style=" stroke:none;fill-rule:nonzero;fill:rgb(17.248535%,25.489807%,30.979919%);fill-opacity:1;" d="M 115.320312 116.511719 C 115.503906 116.847656 115.605469 117.175781 115.628906 117.503906 C 115.648438 117.824219 115.570312 118.113281 115.382812 118.351562 C 115.199219 118.597656 114.890625 118.703125 114.464844 118.675781 C 113.644531 118.636719 112.816406 118.507812 111.980469 118.3125 C 111.140625 118.113281 110.351562 117.921875 109.617188 117.738281 C 109.109375 117.621094 108.792969 117.394531 108.671875 117.03125 C 108.554688 116.679688 108.574219 116.324219 108.734375 115.972656 C 108.890625 115.617188 109.167969 115.320312 109.566406 115.097656 C 109.964844 114.867188 110.421875 114.808594 110.925781 114.925781 L 112.957031 105.941406 C 112.734375 105.941406 112.523438 105.875 112.328125 105.757812 C 112.125 105.636719 111.964844 105.476562 111.832031 105.296875 C 111.699219 105.109375 111.613281 104.910156 111.566406 104.675781 C 111.527344 104.449219 111.542969 104.234375 111.625 104.027344 C 111.753906 103.675781 112.027344 103.351562 112.433594 103.046875 C 112.839844 102.738281 113.28125 102.511719 113.765625 102.363281 C 114.25 102.207031 114.726562 102.160156 115.1875 102.210938 C 115.652344 102.265625 116.015625 102.472656 116.285156 102.824219 C 116.394531 102.957031 116.480469 103.121094 116.546875 103.324219 C 116.613281 103.53125 116.628906 103.707031 116.597656 103.855469 C 116.164062 105.839844 115.730469 107.800781 115.277344 109.742188 C 114.828125 111.691406 114.382812 113.644531 113.941406 115.605469 L 114.582031 115.746094 C 114.890625 115.921875 115.136719 116.171875 115.320312 116.511719 "/>
<path style=" stroke:none;fill-rule:nonzero;fill:rgb(17.248535%,25.489807%,30.979919%);fill-opacity:1;" d="M 105.902344 114.386719 C 106.085938 114.722656 106.1875 115.054688 106.210938 115.378906 C 106.234375 115.699219 106.148438 115.988281 105.964844 116.230469 C 105.78125 116.472656 105.476562 116.578125 105.050781 116.550781 C 104.230469 116.503906 103.398438 116.386719 102.5625 116.1875 C 101.722656 115.988281 100.933594 115.800781 100.199219 115.617188 C 99.6875 115.5 99.375 115.265625 99.257812 114.90625 C 99.140625 114.554688 99.160156 114.191406 99.3125 113.84375 C 99.472656 113.492188 99.753906 113.199219 100.148438 112.96875 C 100.550781 112.738281 101 112.683594 101.511719 112.796875 L 103.539062 103.816406 C 103.316406 103.8125 103.105469 103.757812 102.90625 103.632812 C 102.710938 103.507812 102.550781 103.355469 102.417969 103.171875 C 102.285156 102.984375 102.195312 102.777344 102.152344 102.550781 C 102.109375 102.328125 102.125 102.109375 102.210938 101.902344 C 102.335938 101.550781 102.609375 101.222656 103.015625 100.917969 C 103.421875 100.613281 103.867188 100.382812 104.351562 100.234375 C 104.835938 100.085938 105.308594 100.035156 105.773438 100.085938 C 106.234375 100.140625 106.597656 100.347656 106.867188 100.695312 C 106.976562 100.832031 107.0625 100.992188 107.128906 101.199219 C 107.195312 101.40625 107.210938 101.582031 107.179688 101.722656 C 106.746094 103.710938 106.308594 105.675781 105.863281 107.621094 C 105.410156 109.570312 104.964844 111.519531 104.523438 113.476562 L 105.164062 113.621094 C 105.472656 113.796875 105.71875 114.046875 105.902344 114.386719 "/>
<path style=" stroke:none;fill-rule:nonzero;fill:rgb(68.238831%,85.099792%,84.309387%);fill-opacity:1;" d="M 331.480469 165.179688 C 330.394531 162.152344 329.613281 159.035156 328.1875 155.996094 C 326.871094 152.992188 325.535156 149.945312 324.195312 146.902344 C 322.753906 143.929688 321.070312 141.0625 319.554688 138.269531 C 318.757812 136.882812 318.058594 135.496094 317.207031 134.183594 C 316.335938 132.894531 315.476562 131.613281 314.628906 130.359375 C 312.902344 127.875 311.429688 125.503906 309.707031 123.328125 C 307.984375 121.207031 306.351562 119.210938 304.851562 117.359375 C 304.113281 116.464844 303.40625 115.613281 302.734375 114.808594 C 302.007812 114.074219 301.316406 113.375 300.671875 112.71875 C 299.375 111.414062 298.242188 110.273438 297.3125 109.335938 C 296.523438 108.539062 295.914062 107.925781 295.433594 107.441406 C 294.78125 106.78125 294.386719 106.386719 294.386719 106.386719 C 294.386719 106.386719 294.527344 107.027344 294.757812 108.101562 C 294.898438 108.730469 295.058594 109.484375 295.265625 110.445312 C 295.542969 111.738281 295.882812 113.304688 296.265625 115.101562 C 296.464844 116.007812 296.667969 116.960938 296.882812 117.96875 C 297.003906 118.976562 297.132812 120.027344 297.265625 121.132812 C 297.503906 123.269531 297.761719 125.574219 298.039062 128.023438 C 298.285156 130.425781 298.242188 133.128906 298.34375 135.757812 C 298.371094 137.074219 298.402344 138.417969 298.433594 139.769531 C 298.445312 141.117188 298.285156 142.515625 298.21875 143.886719 C 298 146.652344 297.910156 149.375 297.578125 152.085938 C 297.136719 154.765625 296.695312 157.449219 296.265625 160.085938 C 296.152344 161.007812 295.949219 161.921875 295.726562 162.828125 C 302.023438 159.863281 309.238281 158.667969 316.617188 159.808594 C 322.238281 160.675781 327.332031 162.832031 331.710938 165.882812 C 331.632812 165.648438 331.550781 165.417969 331.480469 165.179688 "/>
<path style=" stroke:none;fill-rule:nonzero;fill:rgb(92.158508%,92.939758%,93.728638%);fill-opacity:1;" d="M 328.476562 182.988281 C 335.40625 192.585938 333.25 205.964844 323.65625 212.898438 C 314.058594 219.824219 300.667969 217.660156 293.734375 208.078125 C 286.804688 198.492188 288.960938 185.09375 298.550781 178.171875 C 308.152344 171.242188 321.542969 173.402344 328.476562 182.988281 "/>
<path style=" stroke:none;fill-rule:nonzero;fill:rgb(19.999695%,59.609985%,85.879517%);fill-opacity:1;" d="M 323.65625 212.898438 C 333.25 205.964844 335.40625 192.585938 328.476562 182.988281 C 321.542969 173.402344 308.152344 171.242188 298.550781 178.171875 C 288.960938 185.09375 286.804688 198.492188 293.734375 208.078125 C 300.667969 217.660156 314.058594 219.824219 323.65625 212.898438 Z M 335.53125 177.894531 C 345.277344 191.375 342.242188 210.207031 328.746094 219.945312 C 315.253906 229.691406 296.421875 226.65625 286.671875 213.167969 C 276.929688 199.691406 279.960938 180.859375 293.457031 171.117188 C 306.945312 161.375 325.785156 164.40625 335.53125 177.894531 "/>
<path style=" stroke:none;fill-rule:nonzero;fill:rgb(15.689087%,50.19989%,72.549438%);fill-opacity:1;" d="M 297.824219 205.117188 C 292.523438 197.792969 294.171875 187.558594 301.511719 182.257812 C 308.839844 176.960938 319.085938 178.613281 324.382812 185.941406 C 329.683594 193.273438 328.03125 203.515625 320.699219 208.808594 C 313.363281 214.105469 303.121094 212.453125 297.824219 205.117188 Z M 326.335938 184.535156 C 320.257812 176.125 308.511719 174.234375 300.101562 180.308594 C 291.691406 186.382812 289.796875 198.121094 295.871094 206.53125 C 301.949219 214.941406 313.695312 216.828125 322.105469 210.757812 C 330.515625 204.679688 332.410156 192.941406 326.335938 184.535156 "/>
<path style=" stroke:none;fill-rule:nonzero;fill:rgb(17.248535%,25.489807%,30.979919%);fill-opacity:1;" d="M 312.453125 206.882812 C 312.375 207.25 312.234375 207.558594 312.042969 207.804688 C 311.847656 208.058594 311.609375 208.207031 311.316406 208.265625 C 311.023438 208.324219 310.730469 208.207031 310.4375 207.914062 C 309.871094 207.351562 309.347656 206.730469 308.859375 206.046875 C 308.382812 205.371094 307.925781 204.722656 307.507812 204.113281 C 307.21875 203.707031 307.136719 203.328125 307.28125 202.996094 C 307.417969 202.664062 307.664062 202.414062 308.007812 202.261719 C 308.34375 202.109375 308.742188 202.066406 309.171875 202.15625 C 309.609375 202.242188 309.980469 202.496094 310.277344 202.90625 L 317.53125 197.667969 C 317.367188 197.523438 317.253906 197.339844 317.1875 197.128906 C 317.121094 196.914062 317.101562 196.695312 317.125 196.472656 C 317.148438 196.257812 317.21875 196.054688 317.328125 195.859375 C 317.445312 195.664062 317.59375 195.523438 317.785156 195.421875 C 318.113281 195.25 318.515625 195.183594 319.007812 195.226562 C 319.503906 195.261719 319.972656 195.378906 320.425781 195.582031 C 320.867188 195.78125 321.246094 196.050781 321.550781 196.386719 C 321.851562 196.726562 321.988281 197.109375 321.957031 197.535156 C 321.953125 197.699219 321.910156 197.878906 321.824219 198.070312 C 321.742188 198.261719 321.640625 198.402344 321.519531 198.488281 C 319.9375 199.652344 318.359375 200.796875 316.773438 201.925781 C 315.195312 203.0625 313.617188 204.195312 312.035156 205.339844 L 312.40625 205.855469 C 312.519531 206.179688 312.539062 206.519531 312.453125 206.882812 "/>
<path style=" stroke:none;fill-rule:nonzero;fill:rgb(17.248535%,25.489807%,30.979919%);fill-opacity:1;" d="M 304.117188 198.699219 C 303.78125 198.6875 303.488281 198.605469 303.230469 198.460938 C 302.96875 198.308594 302.785156 198.101562 302.679688 197.828125 C 302.570312 197.550781 302.585938 197.234375 302.726562 196.863281 C 302.820312 196.636719 302.96875 196.414062 303.167969 196.21875 C 303.367188 196.011719 303.582031 195.824219 303.824219 195.636719 C 304.070312 195.449219 304.304688 195.285156 304.539062 195.136719 C 304.773438 194.988281 304.976562 194.84375 305.136719 194.703125 C 304.769531 194.195312 304.402344 193.675781 304.027344 193.140625 C 303.648438 192.605469 303.285156 192.082031 302.933594 191.566406 C 302.816406 191.40625 302.699219 191.242188 302.566406 191.066406 C 302.445312 190.894531 302.34375 190.714844 302.253906 190.523438 C 302.167969 190.328125 302.109375 190.136719 302.074219 189.941406 C 302.042969 189.746094 302.058594 189.539062 302.128906 189.324219 C 302.257812 188.972656 302.46875 188.710938 302.765625 188.546875 C 303.0625 188.382812 303.390625 188.269531 303.746094 188.207031 C 304.101562 188.136719 304.460938 188.105469 304.828125 188.105469 C 305.191406 188.105469 305.496094 188.09375 305.730469 188.054688 C 306.605469 187.949219 307.472656 187.859375 308.34375 187.789062 C 309.222656 187.722656 310.082031 187.636719 310.945312 187.539062 C 311.207031 187.511719 311.5 187.472656 311.828125 187.417969 C 312.152344 187.367188 312.476562 187.316406 312.804688 187.269531 C 313.140625 187.21875 313.464844 187.195312 313.792969 187.183594 C 314.113281 187.171875 314.414062 187.1875 314.6875 187.230469 C 315.019531 187.292969 315.285156 187.421875 315.492188 187.625 C 315.691406 187.816406 315.828125 188.046875 315.890625 188.304688 C 315.953125 188.5625 315.949219 188.828125 315.871094 189.097656 C 315.804688 189.378906 315.644531 189.621094 315.394531 189.84375 C 315.246094 189.972656 315.039062 190.070312 314.789062 190.132812 C 314.527344 190.195312 314.265625 190.242188 313.996094 190.273438 C 313.726562 190.3125 313.476562 190.324219 313.25 190.332031 C 313.015625 190.335938 312.855469 190.34375 312.761719 190.347656 C 312.292969 190.402344 311.835938 190.453125 311.378906 190.496094 C 310.925781 190.542969 310.476562 190.585938 310.023438 190.628906 C 309.382812 190.703125 308.757812 190.777344 308.132812 190.835938 C 307.519531 190.90625 306.890625 190.960938 306.261719 191.011719 C 306.476562 191.363281 306.695312 191.6875 306.90625 191.984375 C 307.121094 192.285156 307.339844 192.585938 307.5625 192.894531 C 307.925781 192.644531 308.285156 192.390625 308.628906 192.125 C 308.964844 191.855469 309.339844 191.640625 309.726562 191.480469 C 310.054688 191.347656 310.367188 191.335938 310.679688 191.445312 C 310.992188 191.550781 311.242188 191.726562 311.445312 191.96875 C 311.636719 192.214844 311.753906 192.488281 311.785156 192.800781 C 311.816406 193.113281 311.71875 193.410156 311.476562 193.699219 C 311.316406 193.902344 311.132812 194.082031 310.921875 194.257812 C 310.71875 194.425781 310.5 194.585938 310.28125 194.730469 C 310.070312 194.878906 309.871094 195.007812 309.703125 195.121094 C 309.53125 195.238281 309.40625 195.320312 309.328125 195.375 C 309.453125 195.550781 309.582031 195.703125 309.707031 195.84375 C 309.839844 195.984375 309.929688 196.160156 309.976562 196.367188 C 310.042969 196.617188 310.054688 196.886719 310.023438 197.160156 C 309.988281 197.441406 309.90625 197.679688 309.777344 197.894531 C 309.652344 198.113281 309.476562 198.277344 309.253906 198.390625 C 309.035156 198.496094 308.753906 198.511719 308.425781 198.453125 C 308.027344 198.378906 307.71875 198.226562 307.515625 197.988281 C 307.308594 197.753906 307.082031 197.480469 306.855469 197.160156 L 305.0625 198.460938 C 304.761719 198.636719 304.445312 198.710938 304.117188 198.699219 "/>
<path style=" stroke:none;fill-rule:nonzero;fill:rgb(68.238831%,85.099792%,84.309387%);fill-opacity:1;" d="M 173.824219 314.332031 C 174.421875 314.355469 174.992188 314.351562 175.503906 314.316406 C 176.558594 314.292969 177.683594 314.277344 178.867188 314.257812 C 179.460938 314.25 180.070312 314.238281 180.691406 314.226562 L 181.164062 314.21875 L 181.460938 314.21875 C 183.097656 314.5625 181.933594 314.3125 182.308594 314.390625 L 182.347656 314.390625 L 182.484375 314.382812 L 183.648438 314.316406 C 186.738281 314.113281 190.085938 313.894531 193.628906 313.664062 C 197.097656 313.554688 200.777344 312.707031 204.484375 312.074219 C 206.324219 311.722656 208.195312 311.375 210.085938 311.019531 C 211.960938 310.609375 213.832031 309.964844 215.703125 309.4375 C 217.558594 308.871094 219.425781 308.308594 221.296875 307.738281 C 222.222656 307.433594 223.152344 307.191406 224.058594 306.847656 L 226.769531 305.707031 C 230.347656 304.132812 233.90625 302.808594 237.21875 301.03125 C 240.441406 299.203125 243.609375 297.40625 246.671875 295.667969 C 249.574219 293.671875 252.277344 291.679688 254.804688 289.851562 C 257.363281 288.148438 259.574219 285.886719 261.613281 284.136719 C 263.589844 282.269531 265.546875 280.75 266.890625 279.132812 C 268.289062 277.550781 269.511719 276.167969 270.515625 275.035156 C 272.527344 272.761719 273.675781 271.460938 273.675781 271.460938 C 273.675781 271.460938 272.050781 272.0625 269.203125 273.109375 C 267.777344 273.636719 266.046875 274.269531 264.066406 275 C 262.085938 275.804688 259.765625 276.15625 257.378906 276.792969 C 254.921875 277.320312 252.546875 278.117188 249.644531 278.382812 C 246.828125 278.746094 243.921875 279.160156 240.964844 279.488281 C 237.980469 279.542969 234.902344 279.601562 231.773438 279.664062 C 228.707031 279.65625 225.554688 279.160156 222.546875 278.929688 L 220.296875 278.714844 C 219.546875 278.613281 218.792969 278.414062 218.050781 278.265625 C 216.585938 277.957031 215.125 277.648438 213.671875 277.332031 C 212.238281 277 210.84375 276.800781 209.476562 276.378906 C 208.121094 275.921875 206.789062 275.472656 205.476562 275.027344 C 202.890625 274.09375 200.4375 273.492188 198.207031 272.273438 C 197.882812 272.121094 197.578125 271.972656 197.261719 271.824219 C 198.429688 276.71875 198.632812 281.917969 197.59375 287.171875 C 195.019531 300.253906 185.613281 310.273438 173.824219 314.332031 "/>
<path style=" stroke:none;fill-rule:nonzero;fill:rgb(92.158508%,92.939758%,93.728638%);fill-opacity:1;" d="M 179.394531 267.636719 C 186.328125 277.230469 184.167969 290.617188 174.574219 297.550781 C 164.976562 304.472656 151.582031 302.308594 144.652344 292.726562 C 137.726562 283.136719 139.878906 269.742188 149.472656 262.820312 C 159.070312 255.890625 172.464844 258.050781 179.394531 267.636719 "/>
<path style=" stroke:none;fill-rule:nonzero;fill:rgb(90.979004%,63.529968%,26.269531%);fill-opacity:1;" d="M 174.574219 297.550781 C 184.167969 290.617188 186.328125 277.230469 179.394531 267.636719 C 172.464844 258.050781 159.070312 255.890625 149.472656 262.820312 C 139.878906 269.742188 137.726562 283.136719 144.652344 292.726562 C 151.582031 302.308594 164.976562 304.472656 174.574219 297.550781 Z M 186.449219 262.542969 C 196.199219 276.027344 193.160156 294.855469 179.667969 304.59375 C 166.171875 314.339844 147.34375 311.304688 137.59375 297.816406 C 127.851562 284.339844 130.878906 265.507812 144.375 255.765625 C 157.867188 246.027344 176.707031 249.054688 186.449219 262.542969 "/>
<path style=" stroke:none;fill-rule:nonzero;fill:rgb(81.959534%,57.649231%,24.308777%);fill-opacity:1;" d="M 148.746094 289.765625 C 143.441406 282.441406 145.09375 272.207031 152.425781 266.90625 C 159.757812 261.609375 170.003906 263.261719 175.300781 270.589844 C 180.601562 277.921875 178.953125 288.160156 171.621094 293.457031 C 164.28125 298.753906 154.042969 297.101562 148.746094 289.765625 Z M 177.253906 269.183594 C 171.179688 260.773438 159.429688 258.886719 151.019531 264.957031 C 142.609375 271.03125 140.714844 282.773438 146.789062 291.179688 C 152.867188 299.585938 164.617188 301.476562 173.023438 295.40625 C 181.4375 289.328125 183.332031 277.589844 177.253906 269.183594 "/>
<path style=" stroke:none;fill-rule:nonzero;fill:rgb(17.248535%,25.489807%,30.979919%);fill-opacity:1;" d="M 162.75 277.640625 C 162.539062 278.230469 162.488281 278.785156 162.613281 279.292969 C 162.730469 279.796875 162.992188 280.304688 163.386719 280.804688 C 163.464844 280.910156 163.578125 281.03125 163.726562 281.164062 C 163.875 281.289062 164.027344 281.417969 164.175781 281.527344 C 164.328125 281.640625 164.457031 281.738281 164.558594 281.8125 C 164.660156 281.898438 164.695312 281.921875 164.671875 281.902344 C 164.636719 281.917969 164.675781 281.898438 164.777344 281.847656 C 164.878906 281.792969 165.003906 281.730469 165.15625 281.648438 C 165.304688 281.574219 165.460938 281.492188 165.617188 281.414062 C 165.773438 281.328125 165.894531 281.261719 165.980469 281.210938 C 166.175781 281.09375 166.363281 280.972656 166.539062 280.835938 C 166.714844 280.710938 166.855469 280.554688 166.980469 280.386719 C 167.277344 279.96875 167.417969 279.550781 167.394531 279.128906 C 167.371094 278.714844 167.242188 278.332031 167.007812 277.980469 C 166.769531 277.636719 166.457031 277.339844 166.078125 277.089844 C 165.699219 276.847656 165.300781 276.691406 164.882812 276.625 C 164.464844 276.566406 164.0625 276.601562 163.679688 276.75 C 163.296875 276.898438 162.984375 277.195312 162.75 277.640625 Z M 154.191406 282.167969 C 153.960938 281.949219 153.828125 281.707031 153.796875 281.429688 C 153.765625 281.152344 153.800781 280.890625 153.90625 280.636719 C 154.011719 280.386719 154.179688 280.175781 154.398438 279.992188 C 154.628906 279.820312 154.882812 279.71875 155.171875 279.699219 C 155.386719 279.703125 155.578125 279.746094 155.765625 279.832031 C 155.941406 279.914062 156.113281 280.011719 156.265625 280.136719 C 156.417969 280.261719 156.566406 280.378906 156.71875 280.515625 C 156.867188 280.644531 157.027344 280.765625 157.1875 280.867188 C 157.734375 281.21875 158.316406 281.53125 158.933594 281.777344 C 159.550781 282.039062 160.183594 282.203125 160.832031 282.292969 C 160.554688 281.875 160.3125 281.433594 160.101562 280.949219 C 159.886719 280.472656 159.738281 279.984375 159.636719 279.46875 C 159.542969 278.960938 159.523438 278.449219 159.582031 277.949219 C 159.640625 277.449219 159.792969 276.964844 160.03125 276.496094 C 160.210938 276.164062 160.410156 275.855469 160.625 275.566406 C 160.835938 275.277344 161.085938 275.015625 161.375 274.777344 C 161.917969 274.328125 162.542969 274.019531 163.238281 273.832031 C 163.929688 273.65625 164.625 273.613281 165.328125 273.703125 C 166.027344 273.789062 166.691406 274.003906 167.328125 274.34375 C 167.960938 274.675781 168.484375 275.121094 168.902344 275.683594 C 169.265625 276.183594 169.5625 276.714844 169.800781 277.269531 C 170.035156 277.816406 170.179688 278.394531 170.238281 278.984375 C 170.292969 279.570312 170.246094 280.144531 170.09375 280.726562 C 169.949219 281.296875 169.664062 281.847656 169.246094 282.367188 C 169 282.6875 168.699219 282.988281 168.351562 283.25 C 168.011719 283.507812 167.648438 283.746094 167.269531 283.953125 C 166.890625 284.152344 166.503906 284.335938 166.105469 284.488281 C 165.707031 284.644531 165.308594 284.773438 164.917969 284.886719 C 163.886719 285.183594 162.902344 285.324219 161.960938 285.316406 C 161.011719 285.308594 160.097656 285.183594 159.214844 284.929688 C 158.332031 284.6875 157.472656 284.324219 156.644531 283.863281 C 155.820312 283.402344 155.007812 282.839844 154.199219 282.191406 L 154.191406 282.167969 "/>
</g>
</svg>
